<svg xmlns="http://www.w3.org/2000/svg" viewBox="0 0 96 96" role="img" aria-label="bronze medal">
  <defs>
    <linearGradient id="bronze" x1="18" y1="14" x2="80" y2="86" gradientUnits="userSpaceOnUse">
      <stop offset="0" stop-color="#fed7aa"/>
      <stop offset=".32" stop-color="#fb923c"/>
      <stop offset=".72" stop-color="#c2410c"/>
      <stop offset="1" stop-color="#7c2d12"/>
    </linearGradient>
    <linearGradient id="ribbon" x1="24" y1="4" x2="72" y2="38" gradientUnits="userSpaceOnUse">
      <stop offset="0" stop-color="#fbbf24"/>
      <stop offset="1" stop-color="#dc2626"/>
    </linearGradient>
  </defs>
  <path d="M29 5h17l8 31H36Z" fill="url(#ribbon)"/>
  <path d="M50 5h17L60 36H42Z" fill="#991b1b"/>
  <circle cx="48" cy="58" r="33" fill="url(#bronze)" stroke="#7c2d12" stroke-width="4"/>
  <circle cx="48" cy="58" r="24" fill="none" stroke="#ffedd5" stroke-width="4" opacity=".75"/>
  <path d="M48 73c10 0 17-5 17-13 0-5-3-9-8-11 4-2 7-6 7-11 0-8-7-13-16-13-7 0-13 3-17 8l6 6c3-3 6-4 10-4s6 2 6 5c0 4-3 5-8 5h-5v8h6c5 0 9 2 9 6 0 4-3 6-8 6-4 0-8-2-12-5l-5 7c5 4 11 6 18 6Z" fill="#431407"/>
</svg>
