<svg xmlns="http://www.w3.org/2000/svg" viewBox="0 0 96 96" role="img" aria-label="gold crown">
  <defs>
    <linearGradient id="gold" x1="12" y1="14" x2="82" y2="84" gradientUnits="userSpaceOnUse">
      <stop offset="0" stop-color="#fff7ad"/>
      <stop offset=".24" stop-color="#facc15"/>
      <stop offset=".58" stop-color="#f59e0b"/>
      <stop offset="1" stop-color="#b45309"/>
    </linearGradient>
    <linearGradient id="rim" x1="22" y1="68" x2="75" y2="84" gradientUnits="userSpaceOnUse">
      <stop offset="0" stop-color="#fef3c7"/>
      <stop offset=".5" stop-color="#fbbf24"/>
      <stop offset="1" stop-color="#92400e"/>
    </linearGradient>
    <filter id="glow" x="-24" y="-24" width="144" height="144">
      <feDropShadow dx="0" dy="3" stdDeviation="4" flood-color="#f59e0b" flood-opacity=".55"/>
      <feDropShadow dx="0" dy="0" stdDeviation="5" flood-color="#fde68a" flood-opacity=".95"/>
    </filter>
  </defs>
  <circle cx="48" cy="51" r="39" fill="#fff7ed" opacity=".18"/>
  <path d="M18 70 12 28l21 19L48 18l15 29 21-19-6 42Z" fill="url(#gold)" filter="url(#glow)" stroke="#92400e" stroke-width="3" stroke-linejoin="round"/>
  <path d="M21 68h57v13a5 5 0 0 1-5 5H26a5 5 0 0 1-5-5Z" fill="url(#rim)" stroke="#92400e" stroke-width="3" stroke-linejoin="round"/>
  <circle cx="16" cy="27" r="7" fill="#fef08a" stroke="#b45309" stroke-width="3"/>
  <circle cx="48" cy="17" r="8" fill="#fff7ad" stroke="#b45309" stroke-width="3"/>
  <circle cx="84" cy="27" r="7" fill="#fef08a" stroke="#b45309" stroke-width="3"/>
  <path d="M31 65 40 45l8 20 8-20 9 20" fill="none" stroke="#fff7ad" stroke-width="5" stroke-linecap="round" stroke-linejoin="round" opacity=".9"/>
  <path d="M21 24 26 10l5 14 14 5-14 5-5 14-5-14-14-5Z" fill="#fff7ad" opacity=".9"/>
  <path d="M75 11 78 3l3 8 8 3-8 3-3 8-3-8-8-3Z" fill="#ffffff" opacity=".9"/>
</svg>
