<svg xmlns="http://www.w3.org/2000/svg" viewBox="0 0 96 96" role="img" aria-label="silver medal">
  <defs>
    <linearGradient id="silver" x1="20" y1="12" x2="78" y2="86" gradientUnits="userSpaceOnUse">
      <stop offset="0" stop-color="#ffffff"/>
      <stop offset=".32" stop-color="#e2e8f0"/>
      <stop offset=".7" stop-color="#94a3b8"/>
      <stop offset="1" stop-color="#475569"/>
    </linearGradient>
    <linearGradient id="ribbon" x1="24" y1="4" x2="72" y2="38" gradientUnits="userSpaceOnUse">
      <stop offset="0" stop-color="#38bdf8"/>
      <stop offset="1" stop-color="#2563eb"/>
    </linearGradient>
  </defs>
  <path d="M29 5h17l8 31H36Z" fill="url(#ribbon)"/>
  <path d="M50 5h17L60 36H42Z" fill="#1d4ed8"/>
  <circle cx="48" cy="58" r="33" fill="url(#silver)" stroke="#64748b" stroke-width="4"/>
  <circle cx="48" cy="58" r="24" fill="none" stroke="#f8fafc" stroke-width="4" opacity=".85"/>
  <path d="M38 69h22v-7H49l6-5c5-4 8-8 8-14 0-8-6-13-15-13-7 0-12 3-16 8l6 6c3-3 6-5 9-5 4 0 6 2 6 5 0 4-3 7-8 11L38 61Z" fill="#334155"/>
</svg>
