<svg xmlns="http://www.w3.org/2000/svg" viewBox="0 0 1024 1024" role="img" aria-label="fingerfruit">
  <defs>
    <linearGradient id="bg" x1="128" y1="76" x2="896" y2="948" gradientUnits="userSpaceOnUse">
      <stop offset="0" stop-color="#111827"/>
      <stop offset=".54" stop-color="#172033"/>
      <stop offset="1" stop-color="#0b111c"/>
    </linearGradient>
    <linearGradient id="panel" x1="202" y1="122" x2="826" y2="846" gradientUnits="userSpaceOnUse">
      <stop offset="0" stop-color="#263249"/>
      <stop offset="1" stop-color="#101725"/>
    </linearGradient>
    <linearGradient id="mark" x1="274" y1="238" x2="744" y2="784" gradientUnits="userSpaceOnUse">
      <stop offset="0" stop-color="#f8fafc"/>
      <stop offset=".46" stop-color="#dbe7f5"/>
      <stop offset="1" stop-color="#7dd3fc"/>
    </linearGradient>
    <linearGradient id="accent" x1="236" y1="714" x2="788" y2="276" gradientUnits="userSpaceOnUse">
      <stop offset="0" stop-color="#22c55e"/>
      <stop offset=".55" stop-color="#2dd4bf"/>
      <stop offset="1" stop-color="#38bdf8"/>
    </linearGradient>
    <filter id="shadow" x="-18%" y="-18%" width="136%" height="144%">
      <feDropShadow dx="0" dy="30" stdDeviation="24" flood-color="#030712" flood-opacity=".38"/>
    </filter>
  </defs>
  <rect width="1024" height="1024" rx="228" fill="url(#bg)"/>
  <path d="M192 233c0-32 24-59 56-63 176-24 352-24 528 0 32 4 56 31 56 63v558c0 32-24 59-56 63-176 24-352 24-528 0-32-4-56-31-56-63V233z" fill="url(#panel)"/>
  <path d="M196 732c122 58 235 80 340 67 125-16 216-73 296-146v138c0 32-24 59-56 63-176 24-352 24-528 0-32-4-56-31-56-63v-59z" fill="#38bdf8" opacity=".08"/>
  <g filter="url(#shadow)">
    <path d="M286 265c0-29 24-53 53-53h245c26 0 47 21 47 47v49c0 26-21 47-47 47H430v92h126c26 0 47 21 47 47v48c0 26-21 47-47 47H430v151c0 29-24 53-53 53h-38c-29 0-53-24-53-53V265z" fill="url(#mark)"/>
    <path d="M490 335c0-29 24-53 53-53h198c26 0 47 21 47 47v46c0 26-21 47-47 47H634v78h85c26 0 47 21 47 47v45c0 26-21 47-47 47h-85v101c0 29-24 53-53 53h-38c-29 0-53-24-53-53V335z" fill="url(#mark)" opacity=".94"/>
    <path d="M260 756 764 268" fill="none" stroke="url(#accent)" stroke-width="54" stroke-linecap="round"/>
    <path d="M282 778 786 290" fill="none" stroke="#0f172a" stroke-width="18" stroke-linecap="round" opacity=".64"/>
  </g>
  <path d="M301 176h422" fill="none" stroke="#ffffff" stroke-width="2" stroke-linecap="round" opacity=".14"/>
  <path d="M310 848h404" fill="none" stroke="#38bdf8" stroke-width="2" stroke-linecap="round" opacity=".18"/>
</svg>
