<svg xmlns="http://www.w3.org/2000/svg" viewBox="0 0 1024 1024">
  <defs>
    <linearGradient id="bg" x1="170" y1="80" x2="870" y2="940" gradientUnits="userSpaceOnUse">
      <stop offset="0" stop-color="#fff1f2"/>
      <stop offset=".42" stop-color="#ef4444"/>
      <stop offset="1" stop-color="#991b1b"/>
    </linearGradient>
    <linearGradient id="fruit" x1="300" y1="250" x2="735" y2="805" gradientUnits="userSpaceOnUse">
      <stop offset="0" stop-color="#fff7ed"/>
      <stop offset=".52" stop-color="#ffffff"/>
      <stop offset="1" stop-color="#ffe4e6"/>
    </linearGradient>
    <filter id="shadow" x="-20%" y="-20%" width="140%" height="150%">
      <feDropShadow dx="0" dy="34" stdDeviation="32" flood-color="#7f1d1d" flood-opacity=".38"/>
    </filter>
  </defs>
  <rect width="1024" height="1024" rx="230" fill="url(#bg)"/>
  <circle cx="210" cy="198" r="118" fill="#ffffff" opacity=".24"/>
  <circle cx="840" cy="810" r="172" fill="#450a0a" opacity=".18"/>
  <path d="M558 266c31-88 112-137 213-129-3 104-76 184-198 195-22 2-32-37-15-66z" fill="#7f1d1d"/>
  <path d="M500 320c-34-55-84-80-157-74 18 71 71 115 148 115 20 0 23-27 9-41z" fill="#fb7185" opacity=".96"/>
  <path
    d="M519 346c60-61 179-65 240 8 55 66 58 183 22 280-45 120-131 226-221 226-36 0-58-21-101-21-43 0-67 21-102 21-88 0-175-106-220-226-38-100-30-215 29-282 64-72 174-65 239-8 38 34 75 34 114 2z"
    fill="url(#fruit)"
    filter="url(#shadow)"
  />
  <circle cx="742" cy="444" r="76" fill="#ef4444"/>
  <path d="M365 660h292" stroke="#dc2626" stroke-width="60" stroke-linecap="round"/>
  <path d="M660 552l108 108-108 108" fill="none" stroke="#dc2626" stroke-width="60" stroke-linecap="round" stroke-linejoin="round"/>
</svg>
