<svg xmlns="http://www.w3.org/2000/svg" viewBox="0 0 1024 1024">
  <defs>
    <linearGradient id="bg" x1="184" y1="96" x2="840" y2="920" gradientUnits="userSpaceOnUse">
      <stop offset="0" stop-color="#fff7ed"/>
      <stop offset=".48" stop-color="#fef3c7"/>
      <stop offset="1" stop-color="#dbeafe"/>
    </linearGradient>
    <linearGradient id="fruit" x1="326" y1="265" x2="693" y2="740" gradientUnits="userSpaceOnUse">
      <stop offset="0" stop-color="#fb7185"/>
      <stop offset=".58" stop-color="#f43f5e"/>
      <stop offset="1" stop-color="#be123c"/>
    </linearGradient>
    <linearGradient id="leaf" x1="515" y1="180" x2="766" y2="381" gradientUnits="userSpaceOnUse">
      <stop offset="0" stop-color="#34d399"/>
      <stop offset="1" stop-color="#047857"/>
    </linearGradient>
    <filter id="softShadow" x="-20%" y="-20%" width="140%" height="150%">
      <feDropShadow dx="0" dy="28" stdDeviation="28" flood-color="#7f1d1d" flood-opacity=".22"/>
    </filter>
  </defs>
  <rect width="1024" height="1024" rx="244" fill="url(#bg)"/>
  <circle cx="224" cy="212" r="88" fill="#ffffff" opacity=".46"/>
  <circle cx="820" cy="790" r="150" fill="#60a5fa" opacity=".16"/>
  <path d="M542 295c44-96 133-145 256-129-13 119-104 190-245 198-24 1-27-43-11-69z" fill="url(#leaf)"/>
  <path d="M501 333c-40-64-95-96-173-88 13 82 78 134 165 135 25 0 25-31 8-47z" fill="#10b981"/>
  <path
    d="M518 364c66-65 181-65 244 6 66 75 67 205 23 318-51 132-146 220-232 220-42 0-70-24-113-24-42 0-71 24-112 24-86 0-181-88-232-220-44-113-43-243 23-318 63-71 179-71 244-6 49 49 106 49 155 0z"
    fill="url(#fruit)"
    filter="url(#softShadow)"
  />
  <path d="M353 560c40-56 105-92 178-92 47 0 91 15 126 40" fill="none" stroke="#fff7ed" stroke-width="44" stroke-linecap="round"/>
  <path d="M326 670c48-76 124-119 205-119 62 0 119 25 161 67" fill="none" stroke="#fff7ed" stroke-width="44" stroke-linecap="round"/>
  <path d="M414 765c34-40 73-59 119-59 39 0 73 14 103 43" fill="none" stroke="#fff7ed" stroke-width="44" stroke-linecap="round"/>
  <circle cx="708" cy="458" r="52" fill="#fef3c7" opacity=".92"/>
</svg>
