<svg xmlns="http://www.w3.org/2000/svg" viewBox="0 0 1024 1024" role="img" aria-label="fingerfruit">
  <defs>
    <linearGradient id="bg" x1="104" y1="40" x2="848" y2="940" gradientUnits="userSpaceOnUse">
      <stop offset="0" stop-color="#ffffff"/>
      <stop offset=".62" stop-color="#fffaf3"/>
      <stop offset="1" stop-color="#f2f6ee"/>
    </linearGradient>
    <linearGradient id="leaf" x1="118" y1="150" x2="780" y2="722" gradientUnits="userSpaceOnUse">
      <stop offset="0" stop-color="#64df5e"/>
      <stop offset=".52" stop-color="#43cf4f"/>
      <stop offset="1" stop-color="#22a840"/>
    </linearGradient>
    <linearGradient id="mascot" x1="288" y1="348" x2="672" y2="806" gradientUnits="userSpaceOnUse">
      <stop offset="0" stop-color="#ff6b4a"/>
      <stop offset=".58" stop-color="#ee352d"/>
      <stop offset="1" stop-color="#bf1d26"/>
    </linearGradient>
    <filter id="shadow" x="-20%" y="-20%" width="140%" height="150%">
      <feDropShadow dx="0" dy="24" stdDeviation="22" flood-color="#123015" flood-opacity=".18"/>
    </filter>
    <filter id="softShadow" x="-20%" y="-20%" width="140%" height="150%">
      <feDropShadow dx="0" dy="18" stdDeviation="18" flood-color="#d7bca7" flood-opacity=".24"/>
    </filter>
  </defs>
  <rect width="1024" height="1024" rx="220" fill="url(#bg)"/>
  <path d="M142 782c96 40 209 60 340 60 220 0 378-72 474-216v74c0 133-72 205-205 205H272c-70 0-124-17-162-52-31-29-13-69 32-71z" fill="#ecf5e5" opacity=".72"/>
  <path d="M132 172c74-54 166-82 278-82h286c124 0 199 67 214 181-92-50-200-75-325-75-221 0-392 63-513 190v-88c0-52 18-94 60-126z" fill="#ffffff" opacity=".86"/>
  <g filter="url(#shadow)">
    <path d="M136 422c-32-84-11-170 55-227 58-50 144-59 221-25 55-82 148-119 238-88 96 33 151 123 141 235 80 32 125 100 118 174-8 84-77 147-174 157-42 85-129 137-233 131-87-5-162-49-204-115-107 4-188-43-222-124-24-58-15-110 60-118z" fill="url(#leaf)"/>
    <path d="M168 416c53-20 108-18 163 6 3-75 31-133 84-174 50 35 82 86 95 152 62-47 129-61 199-42 3 77-25 139-85 187 65 18 115 54 149 109-47 42-104 61-171 57-55 58-126 86-213 82-59-3-111-21-156-54 24-60 73-102 146-126-78-18-139-58-181-119-22-32-32-61-30-78z" fill="#4dd84d" opacity=".72"/>
  </g>
  <g>
    <g transform="translate(148 185)">
      <circle cx="112" cy="112" r="38" fill="#ffd21f"/>
      <circle cx="112" cy="48" r="48" fill="#fff"/>
      <circle cx="176" cy="112" r="48" fill="#fff"/>
      <circle cx="112" cy="176" r="48" fill="#fff"/>
      <circle cx="48" cy="112" r="48" fill="#fff"/>
    </g>
    <g transform="translate(230 585) scale(.7)">
      <circle cx="112" cy="112" r="34" fill="#ffcf24"/>
      <circle cx="112" cy="52" r="44" fill="#fff"/>
      <circle cx="172" cy="112" r="44" fill="#fff"/>
      <circle cx="112" cy="172" r="44" fill="#fff"/>
      <circle cx="52" cy="112" r="44" fill="#fff"/>
    </g>
  </g>
  <g filter="url(#shadow)" transform="translate(284 270)">
    <path d="M296 24c41 34 69 80 84 137" fill="none" stroke="#ed332c" stroke-width="38" stroke-linecap="round"/>
    <path d="M389 133c34-17 76-18 118-2-20 41-52 68-96 81-18-19-26-42-22-69z" fill="#ffffff"/>
    <path d="M118 150c82 28 143 81 183 158 23 44 59 72 109 84-49 61-112 92-191 93-89 2-157-35-203-109 59-17 98-48 117-92 22-50 18-111-15-134z" fill="url(#mascot)"/>
    <ellipse cx="294" cy="170" rx="92" ry="74" fill="url(#mascot)" transform="rotate(-6 294 170)"/>
    <circle cx="325" cy="151" r="20" fill="#ffffff"/>
    <circle cx="331" cy="151" r="9" fill="#111827"/>
    <path d="M76 394c-41 21-73 55-96 103" fill="none" stroke="#c3262a" stroke-width="26" stroke-linecap="round"/>
    <path d="M240 476c-18 41-21 80-9 118" fill="none" stroke="#c3262a" stroke-width="27" stroke-linecap="round"/>
    <path d="M333 458c17 40 44 70 80 90" fill="none" stroke="#c3262a" stroke-width="27" stroke-linecap="round"/>
    <path d="M392 279c36 4 67 20 94 48" fill="none" stroke="#c3262a" stroke-width="23" stroke-linecap="round"/>
  </g>
  <path d="M182 101h520" fill="none" stroke="#ffffff" stroke-width="3" stroke-linecap="round" opacity=".48"/>
</svg>
