<svg xmlns="http://www.w3.org/2000/svg" viewBox="0 0 1024 1024" role="img" aria-label="fingerfruit">
  <defs>
    <linearGradient id="sky" x1="150" y1="86" x2="862" y2="932" gradientUnits="userSpaceOnUse">
      <stop offset="0" stop-color="#fffbd7"/>
      <stop offset=".46" stop-color="#c9ef8e"/>
      <stop offset="1" stop-color="#6dbc60"/>
    </linearGradient>
    <linearGradient id="fruit" x1="304" y1="234" x2="720" y2="832" gradientUnits="userSpaceOnUse">
      <stop offset="0" stop-color="#ff8b6f"/>
      <stop offset=".5" stop-color="#ff496d"/>
      <stop offset="1" stop-color="#b81f56"/>
    </linearGradient>
    <linearGradient id="leaf" x1="530" y1="150" x2="760" y2="380" gradientUnits="userSpaceOnUse">
      <stop offset="0" stop-color="#b9f66c"/>
      <stop offset="1" stop-color="#168f53"/>
    </linearGradient>
    <filter id="shadow" x="-18%" y="-20%" width="136%" height="150%">
      <feDropShadow dx="0" dy="20" stdDeviation="16" flood-color="#16360e" flood-opacity=".34"/>
    </filter>
  </defs>
  <rect width="1024" height="1024" rx="214" fill="url(#sky)"/>
  <path d="M102 794c112-96 236-117 372-64 147 57 284 43 411-42v236H102z" fill="#237d44" opacity=".42"/>
  <circle cx="225" cy="199" r="102" fill="#fff8ca" opacity=".86"/>
  <path d="M532 282c51-101 139-149 262-144-6 125-95 202-270 226-24 3-39-41-12-82z" fill="url(#leaf)" stroke="#145c36" stroke-width="22" stroke-linejoin="round"/>
  <path d="M493 335c-41-71-103-108-186-104 15 89 83 144 173 149 27 1 35-30 13-45z" fill="#5fd15d" stroke="#145c36" stroke-width="20" stroke-linejoin="round"/>
  <path d="M522 371c67-65 184-65 246 7 68 78 69 213 23 330-52 137-151 228-240 228-44 0-74-25-118-25-43 0-74 25-117 25-89 0-188-91-240-228-46-117-45-252 23-330 62-72 179-72 246-7 50 49 117 49 167 0z" fill="url(#fruit)" stroke="#7b1740" stroke-width="26" stroke-linejoin="round" filter="url(#shadow)"/>
  <path d="M337 567c45-55 112-86 188-86 51 0 98 14 136 40" fill="none" stroke="#fff6c8" stroke-width="45" stroke-linecap="round"/>
  <path d="M294 681c60-75 134-112 220-112 70 0 129 24 177 72" fill="none" stroke="#fff6c8" stroke-width="45" stroke-linecap="round"/>
  <path d="M380 791c38-39 82-58 132-58 45 0 83 15 115 44" fill="none" stroke="#fff6c8" stroke-width="45" stroke-linecap="round"/>
  <circle cx="718" cy="454" r="48" fill="#fff2a0" stroke="#7b1740" stroke-width="18"/>
  <g transform="translate(512 820)">
    <text x="0" y="0" text-anchor="middle" font-family="DejaVu Sans, FreeSans, Arial, sans-serif" font-size="132" font-weight="900" fill="#fff7c4" stroke="#17370d" stroke-width="28" stroke-linejoin="round" paint-order="stroke fill">fingerfruit</text>
    <text x="0" y="0" text-anchor="middle" font-family="DejaVu Sans, FreeSans, Arial, sans-serif" font-size="132" font-weight="900" fill="#fff7c4">fingerfruit</text>
  </g>
</svg>
